<?xml version="1.0" encoding="UTF-8" standalone="no"?>
<!-- Created with Inkscape (http://www.inkscape.org/) -->

<svg
   xmlns:osb="http://www.openswatchbook.org/uri/2009/osb"
   xmlns:dc="http://purl.org/dc/elements/1.1/"
   xmlns:cc="http://creativecommons.org/ns#"
   xmlns:rdf="http://www.w3.org/1999/02/22-rdf-syntax-ns#"
   xmlns:svg="http://www.w3.org/2000/svg"
   xmlns="http://www.w3.org/2000/svg"
   xmlns:sodipodi="http://sodipodi.sourceforge.net/DTD/sodipodi-0.dtd"
   xmlns:inkscape="http://www.inkscape.org/namespaces/inkscape"
   width="210mm"
   height="297mm"
   viewBox="0 0 210 297"
   version="1.1"
   id="svg851"
   sodipodi:docname="GitGudLogo.svg"
   inkscape:version="0.92.4 (5da689c313, 2019-01-14)">
  <defs
     id="defs845">
    <linearGradient
       id="linearGradient2329"
       osb:paint="solid">
      <stop
         style="stop-color:#000029;stop-opacity:1;"
         offset="0"
         id="stop2327" />
    </linearGradient>
    <linearGradient
       id="linearGradient2321"
       osb:paint="solid">
      <stop
         style="stop-color:#000029;stop-opacity:1;"
         offset="0"
         id="stop2319" />
    </linearGradient>
    <linearGradient
       id="linearGradient2313"
       osb:paint="solid">
      <stop
         style="stop-color:#000029;stop-opacity:1;"
         offset="0"
         id="stop2311" />
    </linearGradient>
    <linearGradient
       id="linearGradient825"
       osb:paint="solid">
      <stop
         style="stop-color:#16accc;stop-opacity:1;"
         offset="0"
         id="stop823" />
    </linearGradient>
    <inkscape:path-effect
       effect="envelope"
       id="path-effect4659"
       is_visible="true"
       yy="true"
       xx="true"
       bendpath1="m 194.08203,621.45508 c 143.14759,-52.32025 267.02727,-33.64313 387.26758,0"
       bendpath2="m 581.34961,621.45508 v 88.88086"
       bendpath3="m 194.08203,710.33594 c 149.79635,42.71685 270.97516,26.3985 387.26758,0"
       bendpath4="m 194.08203,621.45508 v 88.88086"
       bendpath1-nodetypes="cc"
       bendpath3-nodetypes="cc" />
    <inkscape:path-effect
       effect="bend_path"
       id="path-effect954"
       is_visible="true"
       bendpath="M 194.08203,665.89551 H 581.34961"
       prop_scale="1"
       scale_y_rel="false"
       vertical="false" />
    <inkscape:perspective
       sodipodi:type="inkscape:persp3d"
       inkscape:vp_x="-256.19963 : 32.201499 : 1"
       inkscape:vp_y="0 : 537.58513 : 0"
       inkscape:vp_z="618.82165 : 32.201499 : 1"
       inkscape:persp3d-origin="181.311 : 5.5910333 : 1"
       id="perspective853" />
  </defs>
  <sodipodi:namedview
     id="base"
     pagecolor="#ffffff"
     bordercolor="#666666"
     borderopacity="0"
     inkscape:pageopacity="0.0"
     inkscape:pageshadow="2"
     inkscape:zoom="0.49497475"
     inkscape:cx="-307.60043"
     inkscape:cy="673.38194"
     inkscape:document-units="mm"
     inkscape:current-layer="layer1"
     showgrid="false"
     inkscape:window-width="2560"
     inkscape:window-height="1377"
     inkscape:window-x="-8"
     inkscape:window-y="-8"
     inkscape:window-maximized="1" />
  <metadata
     id="metadata848">
    <rdf:RDF>
      <cc:Work
         rdf:about="">
        <dc:format>image/svg+xml</dc:format>
        <dc:type
           rdf:resource="http://purl.org/dc/dcmitype/StillImage" />
        <dc:title />
      </cc:Work>
    </rdf:RDF>
  </metadata>
  <g
     inkscape:label="Layer 1"
     inkscape:groupmode="layer"
     id="layer1">
    <path
       style="font-style:normal;font-variant:normal;font-weight:normal;font-stretch:normal;font-size:64.44623566px;line-height:1.25;font-family:'MS PGothic';-inkscape-font-specification:'MS PGothic, Normal';font-variant-ligatures:normal;font-variant-caps:normal;font-variant-numeric:normal;font-feature-settings:normal;text-align:start;letter-spacing:0px;word-spacing:0px;writing-mode:lr-tb;text-anchor:start;fill:#ffffff;fill-opacity:1;stroke:none;stroke-width:1.46352088"
       d="m 213.00353,616.8159 c -5.28902,1.22155 -8.02731,6.41252 -11.2868,14.08243 -1.7036,4.00879 -3.65999,9.39103 -5.11825,14.8802 -1.5291,5.75586 -2.70462,12.26539 -2.72384,19.74893 -0.0184,7.17027 1.12395,13.41768 2.76521,19.14733 1.57347,5.49303 3.73309,10.86994 5.6827,15.22879 3.2188,7.19648 6.38452,11.93014 12.0695,12.89606 4.56507,0.77565 9.43105,-2.1372 13.23264,-8.8967 0.17425,3.53481 0.12054,7.25904 -0.30226,11.18969 1.49629,0.27475 2.9935,0.55235 4.49043,0.83201 3.9949,-16.58755 2.05944,-39.59021 2.07926,-51.22307 -4.75239,0.0594 -9.53857,0.11343 -14.35688,0.15965 -0.0109,3.3394 0.0477,6.48482 0.16039,9.83676 0.10178,4.5e-4 7.90483,0.0409 8.0066,0.0413 0.078,2.81092 0.18376,5.64525 0.27723,8.53236 -0.2234,4.31355 -1.29974,8.55959 -3.36619,12.62441 -2.08505,4.10138 -4.79143,5.9938 -7.81895,5.7173 -4.11121,-0.37548 -7.07802,-3.11197 -9.50834,-7.78818 -1.74848,-3.36426 -3.38254,-7.53008 -4.57357,-12.15808 -1.2127,-4.71224 -2.01012,-10.04274 -1.99638,-16.16248 0.0145,-6.44284 0.85061,-12.06381 2.01698,-16.90985 1.14498,-4.7572 2.67211,-9.00552 4.2653,-12.25975 2.35565,-4.81162 4.85846,-7.67059 8.24211,-8.11799 3.36102,-0.4444 6.28468,1.35362 8.43782,5.51308 2.15505,4.16312 3.14532,9.40443 3.13233,15.62906 2.18599,-0.095 4.36655,-0.19526 6.54077,-0.29994 0.0222,-8.57633 -1.48485,-16.25256 -5.1174,-22.68973 -4.3561,-7.71934 -10.00585,-10.76031 -15.23041,-9.55364 z m 83.99493,-20.48216 c -5.53085,1.13569 -8.48242,9.79436 -11.15613,22.33758 -1.39493,6.5441 -2.59844,14.37774 -3.43037,21.77333 -0.86255,7.66781 -1.4137,15.52939 -1.39573,24.14719 0.0172,8.26925 0.64342,15.57725 1.68299,22.88055 1.00133,7.03469 2.46408,14.49232 4.10735,21.1517 2.73652,11.08982 6.08482,18.60963 11.92408,19.52553 0.0857,0.0134 0.1714,0.0249 0.25705,0.0344 4.58962,0.50865 9.01036,-4.77759 12.64804,-14.44165 0.20003,5.02328 0.28663,10.44915 0.20441,16.34264 1.51783,0.2093 3.03598,0.41325 4.55501,0.61164 2.62052,-26.57884 2.25403,-52.43458 2.21725,-67.21108 -4.53337,0.0512 -9.05547,0.10743 -13.60804,0.16824 0.008,3.42511 0.02,8.36054 0.0213,11.84389 -0.32785,-0.004 7.92075,0.0854 7.5929,0.0818 -9.5e-4,3.36347 -0.01,6.9613 -0.0416,10.53856 -0.39605,5.42232 -1.63255,10.95926 -3.78331,16.55611 -2.17837,5.66865 -4.8394,8.57796 -7.8351,8.27142 -0.0913,-0.009 -0.18202,-0.0205 -0.27216,-0.0335 -3.93062,-0.56666 -6.63509,-4.56559 -8.61377,-11.01573 -2.87022,-9.35636 -4.67226,-21.62836 -4.70299,-35.3929 -0.032,-14.31347 1.58849,-28.16616 4.10448,-37.53561 1.91808,-7.14285 4.25707,-11.53215 7.64418,-12.0154 0.35613,-0.0508 0.70729,-0.0626 1.05369,-0.0353 0,0 0,0 0,0 2.91225,0.22966 5.45398,3.2583 7.48099,8.6283 2.25738,5.98039 3.51108,13.18756 3.78646,21.04723 2.09192,-0.10594 4.18083,-0.20833 6.26998,-0.30696 -0.31029,-10.73249 -2.12072,-21.40267 -5.67191,-31.06877 -3.99621,-10.87743 -8.89672,-17.15755 -13.96311,-17.00957 -0.35863,0.0105 -0.71728,0.0527 -1.07603,0.12633 z m 116.50906,-7.4127 c -5.2391,-0.46842 -9.86952,7.10307 -13.77149,19.97793 -0.21991,0.72589 -0.43671,1.46602 -0.65043,2.21948 -1.33198,4.69602 -2.43805,9.7768 -3.32572,15.04145 -1.97461,11.70861 -2.89276,24.30086 -2.88616,37.68677 0.006,12.30174 0.93889,23.51912 2.90072,34.34212 1.00179,5.52656 2.28448,10.9828 3.85739,16.18355 0.0295,0.0976 0.0591,0.19495 0.0888,0.29203 3.79745,12.42023 8.64609,19.79611 14.4444,19.39976 4.76459,-0.32569 8.02217,-7.11612 10.59841,-17.99545 0.75091,5.19384 1.60692,10.87816 2.58949,16.92577 1.52455,-0.14253 3.04847,-0.29134 4.57219,-0.44623 -2.18995,-27.34293 -1.86958,-54.05927 -1.86354,-69.14233 -4.53144,-0.043 -9.04499,-0.0815 -13.55983,-0.11464 0,-0.0356 0.003,12.63952 0.003,12.67512 0.0452,-2.3e-4 7.50876,-0.0427 7.55399,-0.043 0.004,3.51935 0.0126,7.29028 0.0374,11.04336 -0.3094,5.7102 -1.36561,11.60831 -3.13513,17.81805 -1.78866,6.27686 -4.06602,9.87507 -7.08296,10.01295 -4.07227,0.18611 -7.30165,-3.83592 -9.69359,-11.14977 -2.54333,-7.77683 -4.10993,-17.29965 -4.74487,-27.79627 0,0 0,0 0,0 -0.22846,-3.77862 -0.34228,-7.74889 -0.34361,-11.98733 -0.001,-4.59517 0.1096,-8.93074 0.33651,-13.0681 0,0 0,0 0,0 0.60913,-11.10118 2.0924,-21.24533 4.499,-29.06616 2.41063,-7.83398 5.31298,-12.16374 8.70172,-11.95074 3.38946,0.21304 5.83909,4.16257 7.61399,10.94015 1.74764,6.67346 2.67963,14.51053 2.80604,22.71494 2.08822,0.0683 4.17705,0.14093 6.26834,0.21768 -0.10121,-10.8797 -1.36458,-22.31936 -3.70617,-32.90926 -2.86473,-12.95576 -6.54348,-21.32437 -12.10781,-21.82187 z m -33.51516,0.9072 c 0.048,24.59338 0.12546,40.52403 0.17343,65.11741 -2.0961,-7.89632 -5.0366,-12.21921 -8.85534,-12.18992 -3.1294,0.024 -5.76872,3.35471 -8.00491,9.47088 -2.75053,7.52288 -4.08775,17.47517 -4.13146,31.39037 -0.0407,12.96935 1.35938,26.41827 4.29136,38.43777 1.99785,8.19008 4.80487,12.93402 8.62668,13.01675 3.46832,0.0751 6.11057,-6.13913 8.07356,-16.66969 -3.1e-4,-0.65618 0.0154,15.18736 0.0151,14.53118 1.79275,0.007 3.58522,0.004 5.37807,-0.009 -0.18857,-19.72452 -0.29918,-117.74222 -0.13113,-143.05412 -1.81184,-0.027 -3.62342,-0.041 -5.43534,-0.0419 z m -139.99909,22.75717 c 1.50521,6.57547 2.22011,12.71591 2.5684,18.33264 1.76751,-0.22244 3.53435,-0.44795 5.29866,-0.67548 -0.3735,-5.76688 -1.10942,-12.10174 -2.61436,-18.92553 0.55424,-0.13415 -5.80695,1.40252 -5.2527,1.26837 z m 18.28892,11.18017 c 0.91218,9.31757 0.94615,18.2362 0.91662,25.67155 0.22949,-0.0124 -6.65786,0.35539 -6.42837,0.34296 -0.03,3.67992 -0.0548,5.43734 -0.0848,9.11726 0.18561,-0.005 6.2722,-0.17867 6.4578,-0.18385 -0.0648,12.67456 0.57758,24.48988 -0.0708,39.21148 -0.23056,5.23473 0.19433,10.59611 1.2127,15.98965 0.92683,4.90865 2.89845,7.99687 6.47823,8.66748 2.30736,0.43224 4.75243,-0.93005 7.19466,-4.03035 0.76008,-5.34419 1.23048,-10.32826 1.53012,-14.94174 -2.17109,3.24742 -4.53254,4.75885 -7.00263,4.46036 -1.58899,-0.19202 -2.62391,-1.33205 -3.17926,-3.32644 -0.69202,-2.48516 -0.98411,-5.06177 -0.88054,-7.71774 0.56168,-14.40422 0.0347,-26.00763 0.0781,-38.46942 0.9631,-0.0284 8.1067,-0.2413 9.0698,-0.26971 0.003,-2.96179 0.0112,-6.50947 0.001,-9.64304 3.18931,-0.17755 -12.22689,0.67891 -9.03758,0.50136 0.007,-7.5583 -0.0631,-16.63851 -0.98719,-26.2075 -1.36669,0.21458 -3.90128,0.61311 -5.26796,0.82769 z m 191.21582,21.43659 c -3.69019,-0.1695 -6.48852,2.2942 -8.43342,7.18405 -1.75448,4.41114 -2.89735,9.61805 -3.42059,15.62342 0.0476,1.8e-4 5.71772,0.0222 5.76535,0.0224 0.3508,-2.98589 0.87808,-5.33266 1.57865,-7.03625 1.05363,-2.56217 2.80223,-3.82014 5.25869,-3.76275 1.92878,0.0451 3.42114,1.37376 4.4738,3.92242 1.05293,2.54943 1.57771,5.46825 1.57472,8.81494 -0.87981,1.25538 -2.46178,2.51912 -4.74211,3.8108 -1.57789,1.28674 -3.41953,2.38203 -5.51782,3.27588 -3.13572,1.33579 -5.60487,4.21916 -7.30798,8.87376 -1.53039,4.18254 -2.28137,9.78342 -2.05077,17.27395 0.19924,6.47206 1.2922,12.70287 3.29332,18.32054 2.24883,6.31315 5.18992,9.53913 8.60345,9.10038 4.19504,-0.53921 6.81589,-6.28706 8.83339,-15.45663 0.39481,5.28353 1.18479,9.42078 2.19374,11.93821 2.1389,-0.29515 4.27641,-0.5983 6.41397,-0.90875 -1.89555,-3.64442 -3.14134,-8.83169 -3.55953,-14.98663 -1.06453,-15.66762 -0.89231,-32.60656 -0.88089,-43.72267 0.006,-5.36652 -0.87617,-10.15018 -2.62853,-14.53757 -1.92881,-4.82911 -5.06302,-7.54812 -9.44744,-7.7495 z m 33.8416,1.73017 c -3.03021,-0.1646 -5.67746,3.82597 -7.9841,11.54986 -0.002,-3.29596 -0.006,-7.17635 0.008,-10.67715 0.15043,0.008 -5.45146,-0.27131 -5.30103,-0.26376 -0.066,13.89483 -0.79886,53.27499 2.36157,77.70538 1.78039,-0.26993 3.55986,-0.54412 5.33938,-0.82216 -2.69813,-19.84544 -2.45245,-38.22804 -2.42394,-50.79823 0.007,-3.24987 0.81372,-6.65987 2.41061,-10.24492 1.4212,-3.19059 3.10106,-4.7587 5.05784,-4.70833 1.77671,0.0457 3.11344,1.08385 4.00539,3.0732 1.07099,2.38869 1.60358,4.72797 1.5972,7.07637 -0.0346,12.75141 -0.63952,33.29834 2.4224,53.49968 1.77761,-0.29293 3.55406,-0.58803 5.33093,-0.88493 -2.91683,-18.49769 -2.4756,-36.39893 -2.41539,-48.5237 0.0135,-2.72493 0.73981,-5.61919 2.17127,-8.67985 1.61227,-3.44736 3.65604,-5.12988 6.17064,-5.06659 1.43419,0.0361 2.69986,1.22065 3.78348,3.50497 0.7224,1.52291 1.08229,3.40114 1.07363,5.652 -0.047,12.23104 -0.91379,32.40332 2.26711,50.91078 -9.75871,1.65592 15.08294,-2.55911 5.32423,-0.90319 -3.25696,-18.37329 -2.1974,-40.0114 -2.17818,-52.20771 0.007,-4.45171 -0.92951,-8.5574 -2.76041,-12.49188 -1.64736,-3.54003 -3.89254,-5.48866 -6.75458,-5.64165 -4.1354,-0.22106 -7.30054,3.94442 -9.61372,12.1247 -0.54057,-2.35393 -1.26244,-4.55672 -2.15822,-6.60565 -1.79477,-4.10527 -4.36301,-6.39411 -7.73449,-6.57724 z m 50.59596,2.58684 c -4.01267,-0.17267 -7.18952,2.31402 -9.67761,7.42494 -2.94845,6.05645 -4.59814,14.20838 -4.72326,24.19825 -0.12888,10.28962 1.40393,19.07558 5.10686,26.11603 3.45012,6.55976 7.7453,9.55921 11.9961,8.8405 4.12952,-0.6982 6.49219,-4.23662 8.19179,-9.85198 1.10342,-3.64558 2.05152,-9.54672 2.82448,-15.95553 -1.99728,0.0817 -3.99189,0.16726 -5.9837,0.25613 -0.0182,3.36687 -0.5927,6.5106 -1.69234,9.40832 -0.94581,2.49227 -2.59676,3.93392 -5.10362,4.19037 -2.49712,0.25545 -4.74217,-1.45545 -6.54655,-5.08821 -2.0324,-4.09186 -2.95415,-10.16783 -2.82922,-18.05601 7.32912,-0.16789 14.70748,-0.31891 22.12452,-0.44127 0.32187,-10.31638 -0.91984,-17.46899 -3.65243,-22.59475 -2.85339,-5.35232 -6.24325,-8.28363 -10.03502,-8.44679 z m 33.27432,1.07986 c -4.08479,-0.0812 -7.08905,1.92365 -9.18809,6.05841 -1.56996,3.09266 -2.32442,6.87696 -2.36079,11.34428 -0.028,3.43616 0.7133,6.71148 2.25928,9.80989 0.8596,1.7227 2.27581,3.09195 4.2593,4.10434 1.6138,1.01685 4.04762,2.19399 7.29858,3.52004 1.62658,0.66346 2.76942,1.6734 3.43867,3.03221 0.83627,1.69785 1.2302,3.23085 1.19183,4.60605 -0.0575,2.06113 -0.42776,3.80904 -1.12195,5.23516 -1.04059,2.13771 -3.02356,3.34681 -6.08372,3.56892 -2.51237,0.18234 -4.51472,-0.94461 -5.87111,-3.4401 -0.77389,-1.42375 -1.27022,-3.76599 -1.39387,-6.98422 -1.82282,0.0674 -3.64336,0.13888 -5.46161,0.21419 -0.0616,5.48172 1.05226,10.13532 3.31076,13.84418 2.72461,4.47422 6.61874,6.29808 11.0322,5.71892 4.45593,-0.58473 7.10035,-3.17791 8.84417,-7.44082 1.45535,-3.55768 2.36595,-7.32453 2.53446,-11.37241 0.15589,-3.74439 -0.32968,-6.89926 -1.65789,-9.62714 -0.65824,-1.35199 -1.70363,-2.53493 -3.13909,-3.54844 -1.62192,-1.01285 -3.62076,-2.02406 -5.99792,-3.03864 -3.83616,-1.69061 -6.11066,-3.22465 -6.82255,-4.59217 -0.53379,-1.02544 -0.78964,-2.22349 -0.77742,-3.59053 0.0183,-2.05024 0.47398,-3.92763 1.37957,-5.63056 1.08732,-2.04467 2.5356,-3.05449 4.40125,-3.03762 2.97484,0.0269 5.07453,1.06264 6.23094,3.10359 0.57647,1.01737 0.97755,2.72099 1.14481,5.08986 -0.0307,-6e-5 5.66258,0.0102 5.63186,0.0102 0.0368,-4.07098 -1.01048,-7.78064 -3.03771,-11.19462 -2.2218,-3.74167 -5.62251,-5.67499 -10.04396,-5.76292 z m -324.40421,-0.31448 c -0.14789,9.25753 1.02221,50.43384 -2.21331,65.76326 0.2642,0.0479 5.02256,0.9146 5.28676,0.96249 3.35798,-16.49893 2.20637,-57.15051 2.31996,-66.99399 -1.79416,0.0912 -3.59233,0.1808 -5.39341,0.26824 z m 83.53757,-4.25599 c 0.13166,12.69162 0.23178,40.78151 -0.22438,56.17446 -0.22051,7.44125 0.20686,14.55207 1.41355,20.55601 1.22277,6.08399 3.58999,9.68914 7.38752,10.06064 4.19584,0.41047 8.12924,-7.64894 11.37108,-21.00455 -0.16825,5.97656 -0.40984,12.55042 -0.76737,19.7363 1.7891,0.13351 3.57828,0.25778 5.36828,0.37265 1.30849,-31.34765 1.08623,-68.81907 0.9521,-86.66265 -1.73257,0.037 -3.46493,0.0773 -5.19829,0.1207 0.0903,10.91354 0.11675,28.20312 0.0666,38.77561 -0.0355,7.48748 -1.41156,15.42916 -4.25738,23.93205 -1.92249,5.74419 -4.05934,8.79837 -6.36025,8.63646 -1.59005,-0.11189 -2.73276,-1.77538 -3.49213,-4.81218 -0.90487,-3.61883 -1.24774,-8.8072 -1.12805,-14.95017 0.26605,-13.65385 0.20161,-38.96844 0.0801,-51.12652 -1.73665,0.0609 -3.47327,0.12469 -5.21139,0.19119 z m 45.78822,9.62201 c 1.90229,-0.006 3.54599,1.84033 4.93401,5.46459 2.08048,5.4323 3.1185,12.71732 3.11264,22.63741 -0.006,9.95669 -0.96197,18.83393 -2.89419,25.33637 -1.41865,4.77415 -3.16625,7.33984 -5.28772,7.30543 -1.7678,-0.0287 -3.21861,-2.31493 -4.40958,-6.5434 -1.85301,-6.57906 -2.73089,-15.81464 -2.70507,-26.17913 0.0268,-10.77858 0.87038,-18.01174 2.59526,-22.54187 1.37753,-3.61789 2.92469,-5.47384 4.65465,-5.4794 z m 161.70088,3.16795 c 2.36805,0.0517 4.22469,1.34621 5.52478,3.83355 1.48904,2.84879 2.21397,5.98715 2.15496,9.50623 -0.41782,0.001 -15.18808,0.0445 -15.6059,0.0455 0.40571,-3.61549 1.23424,-6.67378 2.4957,-9.17161 1.44534,-2.86195 3.2365,-4.26162 5.43046,-4.21367 z m -77.52952,23.30881 c 0.0169,4.32755 0.059,9.01382 0.17755,13.83515 -0.14314,1.512 -0.7743,3.9323 -1.85843,7.72929 -1.7064,5.97639 -3.89308,9.47874 -6.92097,9.74123 -1.76374,0.15289 -2.9599,-0.63792 -3.5793,-2.33123 -1.02875,-2.81244 -1.60608,-6.1306 -1.71701,-9.80953 -0.0949,-3.14899 0.28673,-5.92951 1.12097,-8.39257 0.66712,-1.96963 1.70471,-3.42021 3.09337,-4.39782 2.42262,-1.52354 4.37401,-2.78771 6.79663,-4.31125 0.87496,-0.47028 1.83645,-1.16114 2.88719,-2.06327 z"
       transform="matrix(0.43160067,0,0,0.37067869,-56.436888,-56.77884)"
       id="path919"
       inkscape:path-effect="#path-effect4659"
       inkscape:original-d="m 213.85938,621.45508 c -5.34534,0 -9.88913,3.55559 -13.63086,10.66601 -4.09809,7.78764 -6.14649,19.12931 -6.14649,34.02735 0,14.22087 2.2272,25.56449 6.68164,34.02929 3.56356,6.77186 8.1948,10.15821 13.89649,10.15821 4.63262,0 8.46316,-2.8787 11.49218,-8.63477 l 1.60352,8.63477 h 4.54492 v -44.69532 h -13.89844 v 9.6504 h 7.75 v 8.12695 c -0.35635,4.06309 -1.51465,7.95516 -3.47461,11.67969 -1.95995,3.72449 -4.4534,5.58789 -7.48242,5.58789 -4.09809,0 -7.30478,-2.20183 -9.62109,-6.60352 -3.38538,-6.43326 -5.07813,-15.74426 -5.07813,-27.93359 0,-12.8665 1.60335,-22.34674 4.81055,-28.44141 2.31631,-4.40169 5.16736,-6.60351 8.55274,-6.60351 3.38537,0 6.05762,1.86339 8.01757,5.58789 1.95997,3.72452 3.02887,8.46463 3.20703,14.2207 h 6.41407 c -0.17818,-7.78762 -1.69213,-14.39112 -4.54297,-19.80859 -3.38538,-6.43326 -7.75037,-9.64844 -13.0957,-9.64844 z m 84.99023,0 c -5.34534,0 -9.88913,3.55559 -13.63086,10.66601 -4.09809,7.78764 -6.14648,19.12931 -6.14648,34.02735 0,14.22087 2.2272,25.56449 6.68164,34.02929 3.56356,6.77186 8.19674,10.15821 13.89843,10.15821 4.63263,0 8.46317,-2.8787 11.49219,-8.63477 l 1.60352,8.63477 h 4.54297 v -44.69532 h -13.89844 v 9.6504 h 7.75195 v 8.12695 c -0.35636,4.06309 -1.51466,7.95516 -3.47461,11.67969 -1.95996,3.72449 -4.45535,5.58789 -7.48437,5.58789 -4.09809,0 -7.30479,-2.20183 -9.6211,-6.60352 -3.38538,-6.43326 -5.07812,-15.74426 -5.07812,-27.93359 0,-12.8665 1.60334,-22.34674 4.81055,-28.44141 2.31631,-4.40169 5.16735,-6.60351 8.55273,-6.60351 3.38537,0 6.05762,1.86339 8.01758,5.58789 1.95994,3.72452 3.02884,8.46463 3.20703,14.2207 h 6.41406 c -0.17817,-7.78762 -1.69212,-14.39112 -4.54297,-19.80859 -3.38538,-6.43326 -7.75037,-9.64844 -13.0957,-9.64844 z m 114.6582,0 c -5.34533,0 -9.88912,3.55559 -13.63086,10.66601 -4.09809,7.78764 -6.14843,19.12931 -6.14843,34.02735 0,14.22087 2.22721,25.56449 6.68164,34.02929 3.56356,6.77186 8.19674,10.15821 13.89843,10.15821 4.63262,0 8.46315,-2.8787 11.49219,-8.63477 l 1.60352,8.63477 h 4.54492 v -44.69532 h -13.89844 v 9.6504 h 7.75 v 8.12695 c -0.35636,4.06309 -1.51465,7.95516 -3.47461,11.67969 -1.95996,3.72449 -4.45341,5.58789 -7.48242,5.58789 -4.09809,0 -7.30477,-2.20183 -9.62109,-6.60352 -3.38538,-6.43326 -5.07813,-15.74426 -5.07813,-27.93359 0,-12.8665 1.60334,-22.34674 4.81055,-28.44141 2.31629,-4.40169 5.16733,-6.60351 8.55273,-6.60351 3.38538,0 6.05762,1.86339 8.01758,5.58789 1.95999,3.72452 3.02889,8.46463 3.20703,14.2207 h 6.41406 c -0.17816,-7.78762 -1.69212,-14.39112 -4.54296,-19.80859 -3.38538,-6.43326 -7.75037,-9.64844 -13.09571,-9.64844 z m -32.875,1.01562 v 37.07618 c -2.13814,-5.75607 -5.16603,-8.63477 -9.08593,-8.63477 -3.20721,0 -5.96885,2.2018 -8.28516,6.60351 -2.85085,5.41748 -4.27734,13.20358 -4.27734,23.36133 0,9.4806 1.60334,17.26862 4.81054,23.36328 2.13813,4.0631 5.07858,6.09571 8.82031,6.09571 3.38538,0 6.05762,-2.70948 8.01758,-8.12696 v 7.10938 h 5.34571 V 622.4707 Z m -139.77929,0.50782 v 13.20507 h 5.34375 v -13.20507 z m 16.30273,9.65039 v 19.80664 h -6.41406 v 8.12695 h 6.41406 v 34.02734 c 0,4.0631 0.8901,7.7879 2.67187,11.17383 1.60361,3.04733 4.1884,4.57227 7.75196,4.57227 2.31631,0 4.4541,-1.01728 6.41406,-3.04883 v -9.64844 c -1.95996,2.37014 -4.18715,3.55469 -6.68164,3.55469 -1.6036,0 -2.7619,-0.67687 -3.47461,-2.03125 -0.89089,-1.69295 -1.33594,-3.55634 -1.33594,-5.58789 V 660.5625 h 9.08594 v -8.12695 h -9.08594 v -19.80664 z m 194.57031,18.79101 c -3.74173,0 -6.59277,1.86142 -8.55273,5.58594 -1.78177,3.38593 -2.94009,7.44917 -3.47461,12.18945 h 5.8789 c 0.35636,-2.37014 0.8908,-4.23155 1.60352,-5.58593 1.06905,-2.03155 2.85119,-3.04688 5.3457,-3.04688 1.95994,0 3.47585,1.01533 4.54493,3.04688 1.06905,2.03157 1.60351,4.40261 1.60351,7.11132 -0.89088,1.01579 -2.49425,2.03109 -4.81055,3.04688 -1.6036,1.01576 -3.47515,1.86187 -5.61328,2.53906 -3.2072,1.01579 -5.7026,3.21566 -7.48437,6.60156 -1.60361,3.04734 -2.4043,6.94134 -2.4043,11.68164 0,4.0631 0.80069,7.61869 2.4043,10.66602 1.78177,3.38593 4.36658,5.08008 7.75195,5.08008 4.09809,0 7.4836,-2.54026 10.15625,-7.61914 0,3.04733 0.35564,5.2472 1.06836,6.60156 h 6.41406 c -1.42541,-2.03155 -2.13867,-4.90829 -2.13867,-8.63281 V 668.6875 c 0,-4.40169 -0.8901,-8.29571 -2.67187,-11.68164 -1.95997,-3.72452 -5.16665,-5.58594 -9.6211,-5.58594 z m 34.20899,0 c -3.02902,0 -5.70126,3.21713 -8.01758,9.65039 v -8.63476 h -5.3457 v 56.88281 h 5.3457 v -35.55078 c 0,-2.70876 0.80265,-5.58746 2.40625,-8.63477 1.42543,-2.70873 3.11819,-4.0625 5.07812,-4.0625 1.7818,0 3.11693,0.84611 4.00782,2.53907 1.06907,2.03157 1.60351,4.06222 1.60351,6.09374 v 39.61524 h 5.34571 v -36.05859 c 0,-2.37017 0.71323,-4.91043 2.13867,-7.61915 1.60357,-3.04733 3.65199,-4.57031 6.14648,-4.57031 1.42544,0 2.67311,1.01533 3.74219,3.04688 0.71269,1.35435 1.06836,3.04655 1.06836,5.07812 v 40.12305 h 5.3457 v -42.1543 c 0,-4.06309 -0.8901,-7.7879 -2.67187,-11.17383 -1.60361,-3.04733 -3.8308,-4.57031 -6.68164,-4.57031 -4.0981,0 -7.30673,3.55557 -9.62305,10.66602 -0.53453,-2.03157 -1.24583,-3.89494 -2.13672,-5.58789 -1.78177,-3.38593 -4.36655,-5.07813 -7.75195,-5.07813 z m 50.24609,0 c -3.9199,0 -7.1266,2.37102 -9.62109,7.11133 -3.02904,5.75604 -4.54297,13.20371 -4.54297,22.3457 0,9.142 1.42454,16.42237 4.27539,21.83985 2.67268,5.07888 6.14757,7.61914 10.42383,7.61914 4.09809,0 7.30479,-2.2018 9.62109,-6.60352 1.6036,-3.04733 2.76189,-7.61825 3.47461,-13.71289 h -5.87891 c 0,3.04733 -0.62387,5.75681 -1.87109,8.12695 -1.06908,2.03155 -2.85121,3.04688 -5.3457,3.04688 -2.49449,0 -4.54288,-1.52298 -6.14649,-4.57031 -1.78177,-3.38591 -2.67383,-8.63565 -2.67383,-15.7461 h 21.64844 c 0,-9.81918 -1.24574,-17.0976 -3.74023,-21.83789 -2.67268,-5.07888 -5.88132,-7.61914 -9.62305,-7.61914 z m 32.33984,0 c -3.91989,0 -6.94973,2.03259 -9.08789,6.0957 -1.60357,3.04734 -2.40429,6.77019 -2.40429,11.17188 0,3.38593 0.80072,6.60306 2.40429,9.65039 0.89091,1.69295 2.31741,3.04671 4.27735,4.0625 1.6036,1.01576 4.00959,2.20226 7.21679,3.55664 1.60361,0.67719 2.76192,1.69252 3.47461,3.04688 0.89091,1.69297 1.33594,3.21595 1.33594,4.57031 0,2.03155 -0.35759,3.7257 -1.07031,5.08008 -1.06908,2.03154 -3.11747,3.04687 -6.14649,3.04687 -2.49448,0 -4.36603,-1.18454 -5.61328,-3.55469 -0.71274,-1.35435 -1.15779,-3.55618 -1.33593,-6.60351 h -5.34571 c 0,5.07885 0.89206,9.31131 2.67383,12.69726 2.13815,4.0631 5.43422,6.09571 9.88867,6.09571 4.45443,0 7.75055,-2.03261 9.88867,-6.09571 1.7818,-3.38595 2.67188,-7.11073 2.67188,-11.17382 0,-3.72453 -0.71128,-6.93973 -2.13672,-9.64844 -0.71269,-1.35438 -1.78159,-2.54086 -3.20703,-3.55664 -1.6036,-1.01576 -3.56456,-2.03109 -5.88086,-3.04688 -3.74173,-1.69297 -5.96892,-3.21595 -6.68164,-4.57031 -0.53453,-1.01579 -0.80078,-2.20228 -0.80078,-3.55664 0,-2.03155 0.44505,-3.89296 1.33594,-5.58594 1.06905,-2.03154 2.49359,-3.04687 4.27539,-3.04687 2.85084,0 4.8118,1.01533 5.88086,3.04687 0.53457,1.01579 0.89021,2.70799 1.06835,5.07813 h 5.34571 c 0,-4.0631 -0.89203,-7.7879 -2.67383,-11.17383 -1.95996,-3.72452 -5.07726,-5.58594 -9.35352,-5.58594 z m -327.66796,1.01563 v 56.88281 h 5.34375 v -56.88281 z m 84.45507,0 v 41.64648 c 0,4.74028 0.80265,8.63431 2.40625,11.68164 1.6036,3.04733 4.27585,4.57227 8.01758,4.57227 4.09809,0 7.57299,-3.72478 10.42383,-11.17383 v 10.15625 h 5.3457 v -56.88281 h -5.3457 v 28.94922 c 0,5.41747 -1.3371,10.66721 -4.00977,15.74609 -1.78177,3.38593 -3.83017,5.07812 -6.14648,5.07812 -1.6036,0 -2.85129,-0.84611 -3.74219,-2.53906 -1.06906,-2.03157 -1.60351,-5.07948 -1.60351,-9.14258 v -38.09179 z m 47.03907,7.61914 c 1.95996,0 3.6527,1.35376 5.07812,4.0625 2.13815,4.06312 3.20703,9.64934 3.20703,16.75976 0,7.11045 -0.97949,12.52941 -2.93945,16.25391 -1.42543,2.70874 -3.20757,4.0625 -5.3457,4.0625 -1.78178,0 -3.29573,-1.18455 -4.54297,-3.55469 -1.95995,-3.72452 -2.93946,-9.3127 -2.93946,-16.76172 0,-7.78761 0.8901,-13.37383 2.67188,-16.75976 1.42542,-2.70874 3.02877,-4.0625 4.81055,-4.0625 z m 163.56836,0 c 2.31629,0 4.0965,1.18454 5.34375,3.55469 1.42543,2.70873 2.13867,5.75665 2.13867,9.14257 h -15.23438 c 0.35636,-3.38592 1.15901,-6.26462 2.40625,-8.63476 1.42541,-2.70874 3.20755,-4.0625 5.34571,-4.0625 z m -77.24024,20.31445 v 10.1582 c -0.17817,1.01576 -0.89143,2.70799 -2.13867,5.07813 -1.95996,3.72452 -4.45536,5.58789 -7.48438,5.58789 -1.78179,0 -2.94008,-0.50768 -3.47461,-1.52344 -0.89088,-1.69297 -1.33593,-3.72556 -1.33593,-6.0957 0,-2.03155 0.44505,-3.89299 1.33593,-5.58594 0.71272,-1.35438 1.78358,-2.36968 3.20899,-3.04687 1.6036,-0.67719 3.91823,-1.69448 6.94727,-3.04883 0.89088,-0.3386 1.87235,-0.84625 2.9414,-1.52344 z"
       inkscape:connector-curvature="0" />
    <g
       sodipodi:type="inkscape:box3d"
       id="g4661"
       style="fill:#00ff66;fill-opacity:1"
       inkscape:perspectiveID="#perspective853"
       inkscape:corner0="0.5420541 : 0.60716382 : 0 : 1"
       inkscape:corner7="0.20685208 : 0.42289848 : 0.25 : 1">
      <path
         sodipodi:type="inkscape:box3dside"
         id="path4663"
         style="fill:#16accc;fill-rule:evenodd;stroke:none;stroke-width:1.50750661;stroke-linejoin:round;fill-opacity:1"
         inkscape:box3dsidetype="6"
         d="m 27.519749,70.387826 v 64.237894 l 82.489401,18.15971 V 97.509031 Z"
         points="27.519749,134.62572 110.00915,152.78543 110.00915,97.509031 27.519749,70.387826 " />
      <path
         sodipodi:type="inkscape:box3dside"
         id="path4673"
         style="fill:#e9e9ff;fill-rule:evenodd;stroke:none;stroke-width:1.50750661;stroke-linejoin:round"
         inkscape:box3dsidetype="11"
         d="m 110.00915,97.509031 84.25971,-38.491049 v 67.994758 l -84.25971,25.77269 z"
         points="194.26886,59.017982 194.26886,127.01274 110.00915,152.78543 110.00915,97.509031 " />
      <path
         sodipodi:type="inkscape:box3dside"
         id="path4665"
         style="fill:#ffea1b;fill-rule:evenodd;stroke:none;stroke-width:1.50750661;stroke-linejoin:round;fill-opacity:1"
         inkscape:box3dsidetype="5"
         d="M 27.519749,70.387826 106.32254,16.390448 194.26886,59.017982 110.00915,97.509031 Z"
         points="106.32254,16.390448 194.26886,59.017982 110.00915,97.509031 27.519749,70.387826 " />
      <path
         sodipodi:type="inkscape:box3dside"
         id="path4671"
         style="fill:#0a95b2;fill-rule:evenodd;stroke:none;stroke-width:1.50750661;stroke-linejoin:round;fill-opacity:1"
         inkscape:box3dsidetype="13"
         d="m 27.519749,134.62572 78.802791,-36.155368 87.94632,28.542388 -84.25971,25.77269 z"
         points="106.32254,98.470352 194.26886,127.01274 110.00915,152.78543 27.519749,134.62572 " />
      <path
         sodipodi:type="inkscape:box3dside"
         id="path4669"
         style="fill:#16accc;fill-rule:evenodd;stroke:none;stroke-width:1.50750661;stroke-linejoin:round;fill-opacity:1"
         inkscape:box3dsidetype="14"
         d="m 106.32254,16.390448 v 82.079904 l 87.94632,28.542388 V 59.017982 Z"
         points="106.32254,98.470352 194.26886,127.01274 194.26886,59.017982 106.32254,16.390448 " />
      <path
         sodipodi:type="inkscape:box3dside"
         id="path4667"
         style="fill:#ffea1b;fill-opacity:0;fill-rule:evenodd;stroke:none;stroke-width:1.50750661;stroke-linejoin:round"
         inkscape:box3dsidetype="3"
         d="M 27.519749,70.387826 106.32254,16.390448 V 98.470352 L 27.519749,134.62572 Z"
         points="106.32254,16.390448 106.32254,98.470352 27.519749,134.62572 27.519749,70.387826 " />
    </g>
  </g>
</svg>
